<?xml version="1.0" standalone="no"?>
<!DOCTYPE svg PUBLIC "-//W3C//DTD SVG 20010904//EN"
 "http://www.w3.org/TR/2001/REC-SVG-20010904/DTD/svg10.dtd">
<svg version="1.0" xmlns="http://www.w3.org/2000/svg"
 width="512.000000pt" height="512.000000pt" viewBox="0 0 512.000000 512.000000"
 preserveAspectRatio="xMidYMid meet">
<metadata>
Created by potrace 1.14, written by Peter Selinger 2001-2017
</metadata>
<g transform="translate(0.000000,512.000000) scale(0.100000,-0.100000)"
fill="#000000" stroke="none">
<path d="M3105 4834 c-115 -23 -200 -62 -280 -127 -149 -123 -222 -268 -232
-464 l-6 -103 -36 -1 c-20 0 -45 -2 -56 -4 -11 -2 -42 -7 -70 -11 -27 -4 -52
-8 -55 -9 -3 0 -41 -9 -85 -19 -164 -38 -325 -112 -453 -208 -160 -121 -264
-268 -367 -520 -22 -53 -41 -96 -42 -94 -2 1 -3 178 -4 392 -1 415 -2 429 -52
483 -12 13 -40 32 -62 42 -37 17 -76 19 -595 18 -400 0 -563 -4 -585 -12 -42
-17 -67 -36 -95 -77 l-25 -35 -3 -560 c-2 -381 0 -572 8 -597 14 -50 56 -97
105 -119 36 -17 70 -19 322 -19 l282 0 -15 -37 c-9 -21 -17 -73 -18 -123 -2
-87 -8 -110 -28 -110 -16 0 -127 -78 -177 -124 -99 -93 -181 -227 -222 -366
-21 -71 -22 -96 -27 -498 -2 -233 -1 -434 2 -448 8 -31 41 -48 96 -49 51 -1
46 6 75 -125 20 -88 66 -194 124 -278 173 -255 495 -394 803 -346 286 45 528
233 641 499 26 60 57 176 57 211 0 18 6 34 13 36 17 6 1265 3 1270 -2 2 -3 11
-45 21 -95 38 -198 169 -397 335 -509 370 -250 841 -181 1121 164 53 65 61 78
96 150 36 76 63 154 70 208 11 81 15 86 73 88 77 2 86 15 85 122 -2 278 -168
577 -415 749 -68 47 -182 104 -247 123 -23 7 -46 18 -50 24 -7 9 -25 77 -38
141 -1 6 -9 46 -18 90 -10 44 -19 89 -22 100 -10 50 -13 63 -23 105 -16 70
-15 77 20 78 85 2 151 33 217 102 59 61 118 168 110 200 -1 3 4 15 11 28 16
31 17 166 1 234 -19 79 -64 168 -112 220 -95 102 -174 127 -325 103 -26 -5
-55 -9 -63 -10 -8 -1 -35 -5 -60 -9 -25 -4 -58 -10 -75 -12 -16 -2 -41 -6 -55
-9 -14 -2 -45 -7 -70 -10 -111 -14 -211 -35 -238 -49 -36 -18 -64 -53 -82 -98
-8 -18 -14 -34 -15 -36 -2 -3 -63 19 -120 43 -16 7 -52 21 -80 31 -27 10 -61
24 -75 31 -14 7 -30 13 -36 13 -17 0 -204 246 -204 269 0 16 6 21 24 21 37 0
70 15 111 51 21 18 45 34 54 36 9 1 35 5 59 8 128 17 274 115 342 228 28 46
50 98 57 131 4 18 20 38 44 55 43 30 79 88 86 136 6 43 -20 144 -54 215 -29
61 -96 152 -139 190 -147 130 -352 190 -529 154z m-306 -1729 l163 -130 111
-33 c62 -18 166 -49 232 -68 66 -20 152 -45 191 -56 l71 -19 -1 -453 -1 -453
-35 -28 c-19 -16 -63 -58 -98 -94 l-63 -66 -169 -1 -168 -1 3 106 c24 769 23
816 -8 885 -43 93 -94 133 -279 216 -175 79 -251 113 -354 160 -36 17 -70 30
-75 30 -29 0 7 23 139 86 115 56 150 69 162 60 9 -6 89 -69 179 -141z m-249
-774 c1 -50 -2 -525 -3 -571 -2 -43 -6 -55 -19 -58 -17 -3 -18 18 -18 326 0
325 0 330 20 325 11 -3 20 -13 20 -22z"/>
</g>
</svg>
